STARTFONT 2.1
COMMENT
COMMENT Converted from OpenType font "Q:\font stuff\winfont\Nanosecond Thick BRK.ttf" by "otf2bdf 3.0".
COMMENT
FONT -FreeType-Nanosecond Thick BRK-Medium-R-Normal--20-200-72-72-P-76-ISO10646-1
SIZE 20 72 72
FONTBOUNDINGBOX 14 20 0 -3
STARTPROPERTIES 19
FOUNDRY "FreeType"
FAMILY_NAME "Nanosecond Thick BRK"
WEIGHT_NAME "Medium"
SLANT "R"
SETWIDTH_NAME "Normal"
ADD_STYLE_NAME ""
PIXEL_SIZE 20
POINT_SIZE 200
RESOLUTION_X 72
RESOLUTION_Y 72
SPACING "P"
AVERAGE_WIDTH 76
CHARSET_REGISTRY "ISO10646"
CHARSET_ENCODING "1"
FONT_ASCENT 17
FONT_DESCENT 2
COPYRIGHT "ÆNIGMA FONTS   [e-mail]  kentpw@norwich.net"
_OTF_FONTFILE "Q:\font stuff\winfont\Nanosecond Thick BRK.ttf"
_OTF_PSNAME "NanosecondThickBRK"
ENDPROPERTIES
CHARS 99
STARTCHAR 0020
ENCODING 32
SWIDTH 450 0
DWIDTH 9 0
BBX 0 0 0 0
BITMAP
ENDCHAR
STARTCHAR 0021
ENCODING 33
SWIDTH 150 0
DWIDTH 3 0
BBX 2 14 1 0
BITMAP
C0
C0
C0
C0
C0
C0
C0
C0
C0
C0
C0
00
C0
C0
ENDCHAR
STARTCHAR 0022
ENCODING 34
SWIDTH 300 0
DWIDTH 6 0
BBX 5 5 1 8
BITMAP
D8
D8
D8
D8
D8
ENDCHAR
STARTCHAR 0023
ENCODING 35
SWIDTH 500 0
DWIDTH 10 0
BBX 9 14 1 0
BITMAP
3600
3600
3600
FF80
FF80
3600
3600
3600
3600
FF80
FF80
3600
3600
3600
ENDCHAR
STARTCHAR 0024
ENCODING 36
SWIDTH 450 0
DWIDTH 9 0
BBX 8 20 1 -3
BITMAP
18
18
18
3C
7E
E7
C3
C3
C0
7C
3E
03
C3
C3
E7
7E
3C
18
18
18
ENDCHAR
STARTCHAR 0025
ENCODING 37
SWIDTH 450 0
DWIDTH 9 0
BBX 8 14 1 0
BITMAP
73
FB
DF
FE
7E
0C
1C
38
30
7E
7F
FB
DF
CE
ENDCHAR
STARTCHAR 0026
ENCODING 38
SWIDTH 450 0
DWIDTH 9 0
BBX 8 20 1 -3
BITMAP
18
18
18
3C
7E
E7
C3
C3
C0
78
78
E0
C3
C3
E7
7E
3C
18
18
18
ENDCHAR
STARTCHAR 0027
ENCODING 39
SWIDTH 150 0
DWIDTH 3 0
BBX 2 5 1 9
BITMAP
C0
C0
C0
C0
C0
ENDCHAR
STARTCHAR 0028
ENCODING 40
SWIDTH 300 0
DWIDTH 6 0
BBX 5 14 1 0
BITMAP
38
78
E0
C0
C0
C0
C0
C0
C0
C0
C0
C0
78
38
ENDCHAR
STARTCHAR 0029
ENCODING 41
SWIDTH 300 0
DWIDTH 6 0
BBX 5 14 1 0
BITMAP
E0
F0
38
18
18
18
18
18
18
18
18
18
F0
E0
ENDCHAR
STARTCHAR 002A
ENCODING 42
SWIDTH 450 0
DWIDTH 9 0
BBX 8 8 0 6
BITMAP
18
18
7F
FF
7E
3C
7E
64
ENDCHAR
STARTCHAR 002B
ENCODING 43
SWIDTH 450 0
DWIDTH 9 0
BBX 8 8 1 3
BITMAP
18
18
18
FF
FF
18
18
18
ENDCHAR
STARTCHAR 002C
ENCODING 44
SWIDTH 150 0
DWIDTH 3 0
BBX 2 5 1 -3
BITMAP
C0
C0
C0
C0
C0
ENDCHAR
STARTCHAR 002D
ENCODING 45
SWIDTH 450 0
DWIDTH 9 0
BBX 8 2 1 6
BITMAP
FF
FF
ENDCHAR
STARTCHAR 002E
ENCODING 46
SWIDTH 150 0
DWIDTH 3 0
BBX 2 2 1 0
BITMAP
C0
C0
ENDCHAR
STARTCHAR 002F
ENCODING 47
SWIDTH 450 0
DWIDTH 9 0
BBX 8 14 1 0
BITMAP
03
07
06
0E
0E
1C
18
38
70
60
E0
C0
C0
C0
ENDCHAR
STARTCHAR 0030
ENCODING 48
SWIDTH 450 0
DWIDTH 9 0
BBX 8 14 1 0
BITMAP
3C
7E
E7
C3
C3
C3
C3
C3
C3
C3
C3
E7
7E
3C
ENDCHAR
STARTCHAR 0031
ENCODING 49
SWIDTH 150 0
DWIDTH 3 0
BBX 2 14 1 0
BITMAP
C0
C0
C0
C0
C0
C0
C0
C0
C0
C0
C0
C0
C0
C0
ENDCHAR
STARTCHAR 0032
ENCODING 50
SWIDTH 450 0
DWIDTH 9 0
BBX 8 14 1 0
BITMAP
3C
7E
C7
C3
C3
07
3E
7C
E0
C0
C0
C0
FF
7F
ENDCHAR
STARTCHAR 0033
ENCODING 51
SWIDTH 450 0
DWIDTH 9 0
BBX 8 14 1 0
BITMAP
3C
7E
E7
C3
C3
07
1E
1E
07
C3
C3
E7
7E
3C
ENDCHAR
STARTCHAR 0034
ENCODING 52
SWIDTH 450 0
DWIDTH 9 0
BBX 8 14 1 0
BITMAP
C3
C3
C3
C3
C3
C3
FF
7F
03
03
03
03
03
03
ENDCHAR
STARTCHAR 0035
ENCODING 53
SWIDTH 450 0
DWIDTH 9 0
BBX 8 14 1 0
BITMAP
7F
FF
C0
C0
C0
C0
FC
7E
07
03
03
07
FE
FC
ENDCHAR
STARTCHAR 0036
ENCODING 54
SWIDTH 450 0
DWIDTH 9 0
BBX 8 14 1 0
BITMAP
3C
7E
E7
C3
C3
C0
FC
FE
C7
C3
C3
E7
7E
3C
ENDCHAR
STARTCHAR 0037
ENCODING 55
SWIDTH 450 0
DWIDTH 9 0
BBX 8 14 1 0
BITMAP
FE
FF
07
06
06
0E
0E
0C
0C
1C
18
18
38
18
ENDCHAR
STARTCHAR 0038
ENCODING 56
SWIDTH 450 0
DWIDTH 9 0
BBX 8 14 1 0
BITMAP
3C
7E
E7
C3
C3
E7
7E
7E
E7
C3
C3
E7
7E
3C
ENDCHAR
STARTCHAR 0039
ENCODING 57
SWIDTH 450 0
DWIDTH 9 0
BBX 8 14 1 0
BITMAP
3C
7E
E7
C3
C3
E3
7F
3F
03
03
03
03
03
03
ENDCHAR
STARTCHAR 003A
ENCODING 58
SWIDTH 150 0
DWIDTH 3 0
BBX 2 11 1 0
BITMAP
C0
C0
00
00
00
00
00
00
00
C0
C0
ENDCHAR
STARTCHAR 003B
ENCODING 59
SWIDTH 150 0
DWIDTH 3 0
BBX 2 14 1 -3
BITMAP
C0
C0
00
00
00
00
00
00
00
C0
C0
C0
C0
C0
ENDCHAR
STARTCHAR 003C
ENCODING 60
SWIDTH 450 0
DWIDTH 9 0
BBX 8 8 1 3
BITMAP
0F
3F
78
E0
E0
78
3F
0F
ENDCHAR
STARTCHAR 003D
ENCODING 61
SWIDTH 450 0
DWIDTH 9 0
BBX 8 6 1 4
BITMAP
FF
FF
00
00
FF
FF
ENDCHAR
STARTCHAR 003E
ENCODING 62
SWIDTH 450 0
DWIDTH 9 0
BBX 8 8 1 3
BITMAP
E0
F8
3C
0F
0F
3C
F8
E0
ENDCHAR
STARTCHAR 003F
ENCODING 63
SWIDTH 450 0
DWIDTH 9 0
BBX 8 14 1 0
BITMAP
3C
7E
E7
C3
C3
07
1E
1C
18
18
18
00
18
18
ENDCHAR
STARTCHAR 0040
ENCODING 64
SWIDTH 750 0
DWIDTH 15 0
BBX 13 14 1 0
BITMAP
3FE0
7FF0
C018
C798
C7D8
C0D8
DFD8
FFD8
F8D8
DFF8
DFF0
C000
7FE0
3FE0
ENDCHAR
STARTCHAR 0041
ENCODING 65
SWIDTH 450 0
DWIDTH 9 0
BBX 8 14 1 0
BITMAP
3C
7E
E7
C3
C3
C3
FF
FF
C3
C3
C3
C3
C3
C3
ENDCHAR
STARTCHAR 0042
ENCODING 66
SWIDTH 450 0
DWIDTH 9 0
BBX 8 14 1 0
BITMAP
7C
FE
C7
C3
C3
C7
FE
FE
C7
C3
C3
C7
FE
7C
ENDCHAR
STARTCHAR 0043
ENCODING 67
SWIDTH 450 0
DWIDTH 9 0
BBX 8 14 1 0
BITMAP
3C
7E
E7
C3
C3
C0
C0
C0
C0
C3
C3
E7
7E
3C
ENDCHAR
STARTCHAR 0044
ENCODING 68
SWIDTH 450 0
DWIDTH 9 0
BBX 8 14 1 0
BITMAP
7C
FE
C7
C3
C3
C3
C3
C3
C3
C3
C3
C7
FE
7C
ENDCHAR
STARTCHAR 0045
ENCODING 69
SWIDTH 450 0
DWIDTH 9 0
BBX 8 14 1 0
BITMAP
7F
FF
C0
C0
C0
C0
F8
F8
C0
C0
C0
C0
FF
7F
ENDCHAR
STARTCHAR 0046
ENCODING 70
SWIDTH 450 0
DWIDTH 9 0
BBX 8 14 1 0
BITMAP
7F
FF
C0
C0
C0
C0
F8
F8
C0
C0
C0
C0
C0
C0
ENDCHAR
STARTCHAR 0047
ENCODING 71
SWIDTH 450 0
DWIDTH 9 0
BBX 8 14 1 0
BITMAP
3C
7E
E7
C3
C3
C0
DE
DF
C3
C3
C3
E3
7F
3E
ENDCHAR
STARTCHAR 0048
ENCODING 72
SWIDTH 450 0
DWIDTH 9 0
BBX 8 14 1 0
BITMAP
C3
C3
C3
C3
C3
C3
FF
FF
C3
C3
C3
C3
C3
C3
ENDCHAR
STARTCHAR 0049
ENCODING 73
SWIDTH 450 0
DWIDTH 9 0
BBX 8 14 1 0
BITMAP
FF
FF
18
18
18
18
18
18
18
18
18
18
FF
FF
ENDCHAR
STARTCHAR 004A
ENCODING 74
SWIDTH 450 0
DWIDTH 9 0
BBX 8 14 1 0
BITMAP
03
03
03
03
03
03
03
03
03
C3
C3
E3
7E
3C
ENDCHAR
STARTCHAR 004B
ENCODING 75
SWIDTH 450 0
DWIDTH 9 0
BBX 8 14 1 0
BITMAP
C3
C3
C3
C3
C3
C7
FE
FE
C7
C3
C3
C3
C3
C3
ENDCHAR
STARTCHAR 004C
ENCODING 76
SWIDTH 450 0
DWIDTH 9 0
BBX 8 14 1 0
BITMAP
C0
C0
C0
C0
C0
C0
C0
C0
C0
C0
C0
C0
FF
7F
ENDCHAR
STARTCHAR 004D
ENCODING 77
SWIDTH 650 0
DWIDTH 13 0
BBX 11 14 1 0
BITMAP
3F80
7FC0
E660
C660
C660
C660
C660
C660
C660
C660
C660
C660
C660
C660
ENDCHAR
STARTCHAR 004E
ENCODING 78
SWIDTH 450 0
DWIDTH 9 0
BBX 8 14 1 0
BITMAP
3C
7E
E7
C3
C3
C3
C3
C3
C3
C3
C3
C3
C3
C3
ENDCHAR
STARTCHAR 004F
ENCODING 79
SWIDTH 450 0
DWIDTH 9 0
BBX 8 14 1 0
BITMAP
3C
7E
E7
C3
C3
C3
C3
C3
C3
C3
C3
E7
7E
3C
ENDCHAR
STARTCHAR 0050
ENCODING 80
SWIDTH 450 0
DWIDTH 9 0
BBX 8 14 1 0
BITMAP
7C
FE
C7
C3
C3
C7
FE
FC
C0
C0
C0
C0
C0
C0
ENDCHAR
STARTCHAR 0051
ENCODING 81
SWIDTH 450 0
DWIDTH 9 0
BBX 8 14 1 0
BITMAP
3C
7E
E7
C3
C3
C3
C3
C3
C3
DB
DB
FF
7E
3C
ENDCHAR
STARTCHAR 0052
ENCODING 82
SWIDTH 450 0
DWIDTH 9 0
BBX 8 14 1 0
BITMAP
7C
FE
C7
C3
C3
C7
FE
FE
C7
C3
C3
C3
C3
C3
ENDCHAR
STARTCHAR 0053
ENCODING 83
SWIDTH 450 0
DWIDTH 9 0
BBX 8 14 1 0
BITMAP
3C
7E
E7
C3
C3
E0
7C
3E
07
C3
C3
E7
7E
3C
ENDCHAR
STARTCHAR 0054
ENCODING 84
SWIDTH 450 0
DWIDTH 9 0
BBX 8 14 1 0
BITMAP
FF
FF
18
18
18
18
18
18
18
18
18
18
18
18
ENDCHAR
STARTCHAR 0055
ENCODING 85
SWIDTH 450 0
DWIDTH 9 0
BBX 8 14 1 0
BITMAP
C3
C3
C3
C3
C3
C3
C3
C3
C3
C3
C3
E7
7E
3C
ENDCHAR
STARTCHAR 0056
ENCODING 86
SWIDTH 450 0
DWIDTH 9 0
BBX 8 14 1 0
BITMAP
C3
C3
C3
C3
C3
C3
C3
C3
C3
C3
66
7E
3C
18
ENDCHAR
STARTCHAR 0057
ENCODING 87
SWIDTH 650 0
DWIDTH 13 0
BBX 11 14 1 0
BITMAP
C660
C660
C660
C660
C660
C660
C660
C660
C660
C660
C660
E660
7FC0
3F80
ENDCHAR
STARTCHAR 0058
ENCODING 88
SWIDTH 450 0
DWIDTH 9 0
BBX 8 14 1 0
BITMAP
C3
C3
C3
C3
C3
E7
7E
7E
E7
C3
C3
C3
C3
C3
ENDCHAR
STARTCHAR 0059
ENCODING 89
SWIDTH 450 0
DWIDTH 9 0
BBX 8 14 1 0
BITMAP
C3
C3
C3
C3
C3
E7
7E
3C
18
18
18
18
18
18
ENDCHAR
STARTCHAR 005A
ENCODING 90
SWIDTH 450 0
DWIDTH 9 0
BBX 8 14 1 0
BITMAP
FE
FF
07
0E
0E
1C
38
38
70
60
E0
C0
FF
FF
ENDCHAR
STARTCHAR 005B
ENCODING 91
SWIDTH 300 0
DWIDTH 6 0
BBX 5 14 1 0
BITMAP
78
F8
C0
C0
C0
C0
C0
C0
C0
C0
C0
C0
F8
78
ENDCHAR
STARTCHAR 005C
ENCODING 92
SWIDTH 450 0
DWIDTH 9 0
BBX 8 14 1 0
BITMAP
C0
C0
C0
60
70
30
38
1C
0C
0E
06
03
03
03
ENDCHAR
STARTCHAR 005D
ENCODING 93
SWIDTH 300 0
DWIDTH 6 0
BBX 5 14 1 0
BITMAP
F0
F8
18
18
18
18
18
18
18
18
18
18
F8
F0
ENDCHAR
STARTCHAR 005E
ENCODING 94
SWIDTH 450 0
DWIDTH 9 0
BBX 8 5 1 9
BITMAP
18
7C
FE
C7
C3
ENDCHAR
STARTCHAR 005F
ENCODING 95
SWIDTH 450 0
DWIDTH 9 0
BBX 8 2 1 -3
BITMAP
FF
FF
ENDCHAR
STARTCHAR 0060
ENCODING 96
SWIDTH 150 0
DWIDTH 3 0
BBX 2 5 1 9
BITMAP
C0
C0
C0
C0
C0
ENDCHAR
STARTCHAR 0061
ENCODING 97
SWIDTH 450 0
DWIDTH 9 0
BBX 8 8 1 0
BITMAP
1C
1E
07
FF
FF
C7
FF
7E
ENDCHAR
STARTCHAR 0062
ENCODING 98
SWIDTH 450 0
DWIDTH 9 0
BBX 8 14 1 0
BITMAP
C0
C0
C0
C0
C0
C0
FC
FE
C7
C3
C3
C7
FE
7C
ENDCHAR
STARTCHAR 0063
ENCODING 99
SWIDTH 450 0
DWIDTH 9 0
BBX 8 8 1 0
BITMAP
3F
7F
E0
C0
C0
E0
7F
3F
ENDCHAR
STARTCHAR 0064
ENCODING 100
SWIDTH 450 0
DWIDTH 9 0
BBX 8 14 1 0
BITMAP
03
03
03
03
03
03
3F
7F
E3
C3
C3
E3
7F
3E
ENDCHAR
STARTCHAR 0065
ENCODING 101
SWIDTH 450 0
DWIDTH 9 0
BBX 8 8 1 0
BITMAP
7C
FE
C7
FF
FE
C0
F8
78
ENDCHAR
STARTCHAR 0066
ENCODING 102
SWIDTH 450 0
DWIDTH 9 0
BBX 8 14 1 0
BITMAP
3F
7F
E0
C0
C0
C0
F8
F8
C0
C0
C0
C0
C0
C0
ENDCHAR
STARTCHAR 0067
ENCODING 103
SWIDTH 450 0
DWIDTH 9 0
BBX 8 11 1 -3
BITMAP
3E
7F
E3
C3
C3
E3
7F
3F
03
1F
1E
ENDCHAR
STARTCHAR 0068
ENCODING 104
SWIDTH 450 0
DWIDTH 9 0
BBX 8 14 1 0
BITMAP
C0
C0
C0
C0
C0
C0
FC
FE
C7
C3
C3
C3
C3
C3
ENDCHAR
STARTCHAR 0069
ENCODING 105
SWIDTH 150 0
DWIDTH 3 0
BBX 2 11 1 0
BITMAP
C0
C0
00
C0
C0
C0
C0
C0
C0
C0
C0
ENDCHAR
STARTCHAR 006A
ENCODING 106
SWIDTH 300 0
DWIDTH 6 0
BBX 5 14 1 -3
BITMAP
18
18
00
18
18
18
18
18
18
18
18
38
F0
E0
ENDCHAR
STARTCHAR 006B
ENCODING 107
SWIDTH 450 0
DWIDTH 9 0
BBX 8 14 1 0
BITMAP
C0
C0
C0
C3
C3
C7
FE
FE
C7
C3
C3
C3
C3
C3
ENDCHAR
STARTCHAR 006C
ENCODING 108
SWIDTH 150 0
DWIDTH 3 0
BBX 2 14 1 0
BITMAP
C0
C0
C0
C0
C0
C0
C0
C0
C0
C0
C0
C0
C0
C0
ENDCHAR
STARTCHAR 006D
ENCODING 109
SWIDTH 650 0
DWIDTH 13 0
BBX 11 8 1 0
BITMAP
3F80
7FC0
E660
C660
C660
C660
C660
C660
ENDCHAR
STARTCHAR 006E
ENCODING 110
SWIDTH 450 0
DWIDTH 9 0
BBX 8 8 1 0
BITMAP
3C
7E
E7
C3
C3
C3
C3
C3
ENDCHAR
STARTCHAR 006F
ENCODING 111
SWIDTH 450 0
DWIDTH 9 0
BBX 8 8 1 0
BITMAP
3C
FE
C6
C7
C7
C6
FE
7C
ENDCHAR
STARTCHAR 0070
ENCODING 112
SWIDTH 450 0
DWIDTH 9 0
BBX 8 11 1 -3
BITMAP
7C
FE
C7
C3
C3
C7
FE
FC
C0
C0
C0
ENDCHAR
STARTCHAR 0071
ENCODING 113
SWIDTH 450 0
DWIDTH 9 0
BBX 8 11 1 -3
BITMAP
3E
7F
E3
C3
C3
E3
7F
3F
03
03
03
ENDCHAR
STARTCHAR 0072
ENCODING 114
SWIDTH 450 0
DWIDTH 9 0
BBX 8 8 1 0
BITMAP
3F
7F
C0
C0
C0
C0
C0
C0
ENDCHAR
STARTCHAR 0073
ENCODING 115
SWIDTH 450 0
DWIDTH 9 0
BBX 8 8 1 0
BITMAP
7F
FF
C0
FE
FF
07
FE
FC
ENDCHAR
STARTCHAR 0074
ENCODING 116
SWIDTH 450 0
DWIDTH 9 0
BBX 8 11 1 0
BITMAP
18
18
18
FF
FF
18
18
18
18
18
18
ENDCHAR
STARTCHAR 0075
ENCODING 117
SWIDTH 450 0
DWIDTH 9 0
BBX 8 8 1 0
BITMAP
C3
C3
C3
C3
C3
E7
7E
3C
ENDCHAR
STARTCHAR 0076
ENCODING 118
SWIDTH 450 0
DWIDTH 9 0
BBX 8 8 1 0
BITMAP
C3
C3
C3
C3
66
7E
3C
18
ENDCHAR
STARTCHAR 0077
ENCODING 119
SWIDTH 650 0
DWIDTH 13 0
BBX 11 8 1 0
BITMAP
C660
C660
C660
C660
C660
E660
7FC0
3F80
ENDCHAR
STARTCHAR 0078
ENCODING 120
SWIDTH 450 0
DWIDTH 9 0
BBX 8 8 1 0
BITMAP
C3
C3
E7
7E
7E
E7
C3
C3
ENDCHAR
STARTCHAR 0079
ENCODING 121
SWIDTH 450 0
DWIDTH 9 0
BBX 8 11 1 -3
BITMAP
C3
C3
C3
C3
C3
E3
7F
3F
03
1F
1E
ENDCHAR
STARTCHAR 007A
ENCODING 122
SWIDTH 450 0
DWIDTH 9 0
BBX 8 8 1 0
BITMAP
FE
FF
0F
3E
F8
F0
FF
FF
ENDCHAR
STARTCHAR 007B
ENCODING 123
SWIDTH 350 0
DWIDTH 7 0
BBX 6 14 1 0
BITMAP
1C
3C
70
60
60
60
E0
E0
60
60
60
70
3C
1C
ENDCHAR
STARTCHAR 007C
ENCODING 124
SWIDTH 150 0
DWIDTH 3 0
BBX 2 20 1 -3
BITMAP
C0
C0
C0
C0
C0
C0
C0
C0
C0
C0
C0
C0
C0
C0
C0
C0
C0
C0
C0
C0
ENDCHAR
STARTCHAR 007D
ENCODING 125
SWIDTH 350 0
DWIDTH 7 0
BBX 6 14 1 0
BITMAP
E0
F0
38
18
18
18
1C
1C
18
18
18
38
F0
E0
ENDCHAR
STARTCHAR 007E
ENCODING 126
SWIDTH 450 0
DWIDTH 9 0
BBX 8 4 1 5
BITMAP
73
FB
DF
DE
ENDCHAR
STARTCHAR 00C6
ENCODING 198
SWIDTH 650 0
DWIDTH 13 0
BBX 12 14 1 0
BITMAP
3FF0
7FF0
E600
C600
C600
C600
FFC0
FFC0
C600
C600
C600
C600
C7F0
C3F0
ENDCHAR
STARTCHAR 00E6
ENCODING 230
SWIDTH 650 0
DWIDTH 13 0
BBX 12 8 1 0
BITMAP
3BC0
3FE0
0E70
FFF0
FFE0
CE00
FFC0
7FC0
ENDCHAR
STARTCHAR E000
ENCODING 57344
SWIDTH 0 0
DWIDTH 0 0
BBX 0 0 0 0
BITMAP
ENDCHAR
STARTCHAR E001
ENCODING 57345
SWIDTH 500 0
DWIDTH 10 0
BBX 0 0 0 0
BITMAP
ENDCHAR
ENDFONT
